<svg id="visual" viewBox="0 0 900 600" width="900" height="600" xmlns="http://www.w3.org/2000/svg" xmlns:xlink="http://www.w3.org/1999/xlink" version="1.1"><rect x="0" y="0" width="900" height="600" fill="#d8d8d8"></rect><path d="M0 207L15 210.3C30 213.7 60 220.3 90 218.2C120 216 150 205 180 209C210 213 240 232 270 240.5C300 249 330 247 360 245C390 243 420 241 450 233.2C480 225.3 510 211.7 540 203.2C570 194.7 600 191.3 630 194.8C660 198.3 690 208.7 720 212.8C750 217 780 215 810 219.5C840 224 870 235 885 240.5L900 246L900 0L885 0C870 0 840 0 810 0C780 0 750 0 720 0C690 0 660 0 630 0C600 0 570 0 540 0C510 0 480 0 450 0C420 0 390 0 360 0C330 0 300 0 270 0C240 0 210 0 180 0C150 0 120 0 90 0C60 0 30 0 15 0L0 0Z" fill="#a42691"></path><path d="M0 176L15 177C30 178 60 180 90 178.2C120 176.3 150 170.7 180 167.2C210 163.7 240 162.3 270 164.3C300 166.3 330 171.7 360 178.5C390 185.3 420 193.7 450 191.2C480 188.7 510 175.3 540 173.2C570 171 600 180 630 178.2C660 176.3 690 163.7 720 164.2C750 164.7 780 178.3 810 185.3C840 192.3 870 192.7 885 192.8L900 193L900 0L885 0C870 0 840 0 810 0C780 0 750 0 720 0C690 0 660 0 630 0C600 0 570 0 540 0C510 0 480 0 450 0C420 0 390 0 360 0C330 0 300 0 270 0C240 0 210 0 180 0C150 0 120 0 90 0C60 0 30 0 15 0L0 0Z" fill="#b51e8d"></path><path d="M0 110L15 113.8C30 117.7 60 125.3 90 127C120 128.7 150 124.3 180 122.3C210 120.3 240 120.7 270 124.5C300 128.3 330 135.7 360 135.7C390 135.7 420 128.3 450 126.3C480 124.3 510 127.7 540 127.7C570 127.7 600 124.3 630 121.2C660 118 690 115 720 115.5C750 116 780 120 810 127.7C840 135.3 870 146.7 885 152.3L900 158L900 0L885 0C870 0 840 0 810 0C780 0 750 0 720 0C690 0 660 0 630 0C600 0 570 0 540 0C510 0 480 0 450 0C420 0 390 0 360 0C330 0 300 0 270 0C240 0 210 0 180 0C150 0 120 0 90 0C60 0 30 0 15 0L0 0Z" fill="#c51587"></path><path d="M0 109L15 106.7C30 104.3 60 99.7 90 99.2C120 98.7 150 102.3 180 103.5C210 104.7 240 103.3 270 103C300 102.7 330 103.3 360 105.3C390 107.3 420 110.7 450 106C480 101.3 510 88.7 540 86C570 83.3 600 90.7 630 95C660 99.3 690 100.7 720 97.7C750 94.7 780 87.3 810 85.7C840 84 870 88 885 90L900 92L900 0L885 0C870 0 840 0 810 0C780 0 750 0 720 0C690 0 660 0 630 0C600 0 570 0 540 0C510 0 480 0 450 0C420 0 390 0 360 0C330 0 300 0 270 0C240 0 210 0 180 0C150 0 120 0 90 0C60 0 30 0 15 0L0 0Z" fill="#d40980"></path><path d="M0 47L15 46C30 45 60 43 90 46.3C120 49.7 150 58.3 180 58.3C210 58.3 240 49.7 270 47.5C300 45.3 330 49.7 360 49.5C390 49.3 420 44.7 450 43.7C480 42.7 510 45.3 540 49.2C570 53 600 58 630 57.7C660 57.3 690 51.7 720 50.8C750 50 780 54 810 53C840 52 870 46 885 43L900 40L900 0L885 0C870 0 840 0 810 0C780 0 750 0 720 0C690 0 660 0 630 0C600 0 570 0 540 0C510 0 480 0 450 0C420 0 390 0 360 0C330 0 300 0 270 0C240 0 210 0 180 0C150 0 120 0 90 0C60 0 30 0 15 0L0 0Z" fill="#e10078"></path></svg>