<svg id="visual" viewBox="0 0 900 450" width="900" height="450" xmlns="http://www.w3.org/2000/svg" xmlns:xlink="http://www.w3.org/1999/xlink" version="1.1"><path d="M0 158L30 158C60 158 120 158 180 177.5C240 197 300 236 360 229.8C420 223.7 480 172.3 540 155.5C600 138.7 660 156.3 720 167C780 177.7 840 181.3 870 183.2L900 185L900 0L870 0C840 0 780 0 720 0C660 0 600 0 540 0C480 0 420 0 360 0C300 0 240 0 180 0C120 0 60 0 30 0L0 0Z" fill="#734597" stroke-linecap="round" stroke-linejoin="miter"></path></svg>