<svg id="visual" viewBox="0 0 900 600" width="900" height="600" xmlns="http://www.w3.org/2000/svg" xmlns:xlink="http://www.w3.org/1999/xlink" version="1.1"><rect x="0" y="0" width="900" height="600" fill="#d8d8d8"></rect><path d="M0 358L25 359.5C50 361 100 364 150 359.5C200 355 250 343 300 332C350 321 400 311 450 306.7C500 302.3 550 303.7 600 309.2C650 314.7 700 324.3 750 323.7C800 323 850 312 875 306.5L900 301L900 0L875 0C850 0 800 0 750 0C700 0 650 0 600 0C550 0 500 0 450 0C400 0 350 0 300 0C250 0 200 0 150 0C100 0 50 0 25 0L0 0Z" fill="#e10078"></path><path d="M0 219L25 228.3C50 237.7 100 256.3 150 265C200 273.7 250 272.3 300 261.7C350 251 400 231 450 223.2C500 215.3 550 219.7 600 227.8C650 236 700 248 750 255.7C800 263.3 850 266.7 875 268.3L900 270L900 0L875 0C850 0 800 0 750 0C700 0 650 0 600 0C550 0 500 0 450 0C400 0 350 0 300 0C250 0 200 0 150 0C100 0 50 0 25 0L0 0Z" fill="#c51587"></path><path d="M0 165L25 159.5C50 154 100 143 150 143.3C200 143.7 250 155.3 300 156.2C350 157 400 147 450 139.2C500 131.3 550 125.7 600 127.2C650 128.7 700 137.3 750 139.5C800 141.7 850 137.3 875 135.2L900 133L900 0L875 0C850 0 800 0 750 0C700 0 650 0 600 0C550 0 500 0 450 0C400 0 350 0 300 0C250 0 200 0 150 0C100 0 50 0 25 0L0 0Z" fill="#a42691"></path></svg>