<svg id="visual" viewBox="0 0 900 450" width="900" height="450" xmlns="http://www.w3.org/2000/svg" xmlns:xlink="http://www.w3.org/1999/xlink" version="1.1"><path d="M0 240L30 238.2C60 236.3 120 232.7 180 247.3C240 262 300 295 360 300.5C420 306 480 284 540 265.7C600 247.3 660 232.7 720 228.7C780 224.7 840 231.3 870 234.7L900 238L900 0L870 0C840 0 780 0 720 0C660 0 600 0 540 0C480 0 420 0 360 0C300 0 240 0 180 0C120 0 60 0 30 0L0 0Z" fill="#a9459a" stroke-linecap="round" stroke-linejoin="miter"></path></svg>