<svg id="visual" viewBox="0 0 900 600" width="900" height="600" xmlns="http://www.w3.org/2000/svg" xmlns:xlink="http://www.w3.org/1999/xlink" version="1.1"><rect x="0" y="0" width="900" height="600" fill="#002233"></rect><path d="M0 247L21.5 246.3C43 245.7 86 244.3 128.8 243.5C171.7 242.7 214.3 242.3 257.2 239.7C300 237 343 232 385.8 211.8C428.7 191.7 471.3 156.3 514.2 163.2C557 170 600 219 642.8 219.3C685.7 219.7 728.3 171.3 771.2 160.7C814 150 857 177 878.5 190.5L900 204L900 0L878.5 0C857 0 814 0 771.2 0C728.3 0 685.7 0 642.8 0C600 0 557 0 514.2 0C471.3 0 428.7 0 385.8 0C343 0 300 0 257.2 0C214.3 0 171.7 0 128.8 0C86 0 43 0 21.5 0L0 0Z" fill="#a9459a" stroke-linecap="round" stroke-linejoin="miter"></path></svg>